{
    "asset" : {
        "generator" : "Khronos glTF Blender I/O v1.5.17",
        "version" : "2.0"
    },
    "scene" : 0,
    "scenes" : [
        {
            "name" : "Scene",
            "nodes" : [
                0,
                1,
                2,
                3
            ]
        }
    ],
    "nodes" : [
        {
            "name" : "Light",
            "rotation" : [
                0.16907575726509094,
                0.7558803558349609,
                -0.27217137813568115,
                0.570947527885437
            ],
            "translation" : [
                3.3337831497192383,
                5.903861999511719,
                -2.2428858280181885
            ]
        },
        {
            "name" : "Camera",
            "rotation" : [
                0.48976433277130127,
                0.4316107928752899,
                -0.3048081398010254,
                0.6934947967529297
            ],
            "translation" : [
                4.0024614334106445,
                2.4913270473480225,
                1.8089282512664795
            ]
        },
        {
            "name" : "ft_morgan_3_wheeler.001",
            "rotation" : [
                0.7071068286895752,
                0,
                0,
                0.7071067094802856
            ]
        },
        {
            "mesh" : 0,
            "name" : "ft_morgan_3_wheeler.010",
            "rotation" : [
                0,
                0,
                0,
                -1
            ]
        }
    ],
    "animations" : [
        {
            "channels" : [
                {
                    "sampler" : 0,
                    "target" : {
                        "node" : 3,
                        "path" : "rotation"
                    }
                }
            ],
            "name" : "ft_morgan_3_wheeler.010Action.001",
            "samplers" : [
                {
                    "input" : 12,
                    "interpolation" : "LINEAR",
                    "output" : 13
                }
            ]
        }
    ],
    "materials" : [
        {
            "doubleSided" : true,
            "name" : "Material.002",
            "pbrMetallicRoughness" : {
                "baseColorFactor" : [
                    0,
                    0,
                    0,
                    1
                ],
                "metallicFactor" : 0,
                "roughnessFactor" : 0.5
            }
        },
        {
            "doubleSided" : true,
            "name" : "Material.003",
            "pbrMetallicRoughness" : {
                "baseColorFactor" : [
                    0,
                    0,
                    0,
                    1
                ],
                "metallicFactor" : 0,
                "roughnessFactor" : 0.5
            }
        },
        {
            "doubleSided" : true,
            "name" : "Material.004",
            "pbrMetallicRoughness" : {
                "baseColorFactor" : [
                    0.12370985001325607,
                    0.12370985001325607,
                    0.12370985001325607,
                    1
                ],
                "metallicFactor" : 0.720588207244873,
                "roughnessFactor" : 0.5
            }
        }
    ],
    "meshes" : [
        {
            "name" : "ft_morgan_3_wheeler.010",
            "primitives" : [
                {
                    "attributes" : {
                        "POSITION" : 0,
                        "NORMAL" : 1,
                        "TEXCOORD_0" : 2
                    },
                    "indices" : 3,
                    "material" : 0
                },
                {
                    "attributes" : {
                        "POSITION" : 4,
                        "NORMAL" : 5,
                        "TEXCOORD_0" : 6
                    },
                    "indices" : 7,
                    "material" : 1
                },
                {
                    "attributes" : {
                        "POSITION" : 8,
                        "NORMAL" : 9,
                        "TEXCOORD_0" : 10
                    },
                    "indices" : 11,
                    "material" : 2
                }
            ]
        }
    ],
    "accessors" : [
        {
            "bufferView" : 0,
            "componentType" : 5126,
            "count" : 800,
            "max" : [
                0.8134757280349731,
                1.5749080181121826,
                0.14970539510250092
            ],
            "min" : [
                0.7072476744651794,
                0.8967834115028381,
                -0.5284202098846436
            ],
            "type" : "VEC3"
        },
        {
            "bufferView" : 1,
            "componentType" : 5126,
            "count" : 800,
            "type" : "VEC3"
        },
        {
            "bufferView" : 2,
            "componentType" : 5126,
            "count" : 800,
            "type" : "VEC2"
        },
        {
            "bufferView" : 3,
            "componentType" : 5123,
            "count" : 3840,
            "type" : "SCALAR"
        },
        {
            "bufferView" : 4,
            "componentType" : 5126,
            "count" : 324,
            "max" : [
                0.8017218112945557,
                1.5794399976730347,
                0.15423749387264252
            ],
            "min" : [
                0.7190021872520447,
                0.8922507762908936,
                -0.5329527854919434
            ],
            "type" : "VEC3"
        },
        {
            "bufferView" : 5,
            "componentType" : 5126,
            "count" : 324,
            "type" : "VEC3"
        },
        {
            "bufferView" : 6,
            "componentType" : 5126,
            "count" : 324,
            "type" : "VEC2"
        },
        {
            "bufferView" : 7,
            "componentType" : 5123,
            "count" : 1440,
            "type" : "SCALAR"
        },
        {
            "bufferView" : 8,
            "componentType" : 5126,
            "count" : 8787,
            "max" : [
                0.8443878293037415,
                1.4921499490737915,
                0.06682751327753067
            ],
            "min" : [
                0.7165324091911316,
                0.9797816872596741,
                -0.44554540514945984
            ],
            "type" : "VEC3"
        },
        {
            "bufferView" : 9,
            "componentType" : 5126,
            "count" : 8787,
            "type" : "VEC3"
        },
        {
            "bufferView" : 10,
            "componentType" : 5126,
            "count" : 8787,
            "type" : "VEC2"
        },
        {
            "bufferView" : 11,
            "componentType" : 5123,
            "count" : 32280,
            "type" : "SCALAR"
        },
        {
            "bufferView" : 12,
            "componentType" : 5126,
            "count" : 97,
            "max" : [
                4
            ],
            "min" : [
                0
            ],
            "type" : "SCALAR"
        },
        {
            "bufferView" : 13,
            "componentType" : 5126,
            "count" : 97,
            "type" : "VEC4"
        }
    ],
    "bufferViews" : [
        {
            "buffer" : 0,
            "byteLength" : 9600,
            "byteOffset" : 0
        },
        {
            "buffer" : 0,
            "byteLength" : 9600,
            "byteOffset" : 9600
        },
        {
            "buffer" : 0,
            "byteLength" : 6400,
            "byteOffset" : 19200
        },
        {
            "buffer" : 0,
            "byteLength" : 7680,
            "byteOffset" : 25600
        },
        {
            "buffer" : 0,
            "byteLength" : 3888,
            "byteOffset" : 33280
        },
        {
            "buffer" : 0,
            "byteLength" : 3888,
            "byteOffset" : 37168
        },
        {
            "buffer" : 0,
            "byteLength" : 2592,
            "byteOffset" : 41056
        },
        {
            "buffer" : 0,
            "byteLength" : 2880,
            "byteOffset" : 43648
        },
        {
            "buffer" : 0,
            "byteLength" : 105444,
            "byteOffset" : 46528
        },
        {
            "buffer" : 0,
            "byteLength" : 105444,
            "byteOffset" : 151972
        },
        {
            "buffer" : 0,
            "byteLength" : 70296,
            "byteOffset" : 257416
        },
        {
            "buffer" : 0,
            "byteLength" : 64560,
            "byteOffset" : 327712
        },
        {
            "buffer" : 0,
            "byteLength" : 388,
            "byteOffset" : 392272
        },
        {
            "buffer" : 0,
            "byteLength" : 1552,
            "byteOffset" : 392660
        }
    ],
    "buffers" : [
        {
            "byteLength" : 394212,
            "uri" : "data:application/octet-stream;base64,"
        }
    ]
}
