{
    "asset" : {
        "generator" : "Khronos glTF Blender I/O v1.5.17",
        "version" : "2.0"
    },
    "scene" : 0,
    "scenes" : [
        {
            "name" : "Scene",
            "nodes" : [
                0,
                1,
                2
            ]
        }
    ],
    "nodes" : [
        {
            "name" : "Light",
            "rotation" : [
                0.16907575726509094,
                0.7558803558349609,
                -0.27217137813568115,
                0.570947527885437
            ],
            "translation" : [
                -1.9380922317504883,
                1.0157363414764404,
                -1.810494065284729
            ]
        },
        {
            "name" : "Camera",
            "rotation" : [
                0.3585911691188812,
                -0.6413135528564453,
                0.48644909262657166,
                0.47275426983833313
            ],
            "translation" : [
                -2.705775737762451,
                0.7353214621543884,
                -0.5011410117149353
            ]
        },
        {
            "mesh" : 0,
            "name" : "RimTyre"
        }
    ],
    "animations" : [
        {
            "channels" : [
                {
                    "sampler" : 0,
                    "target" : {
                        "node" : 2,
                        "path" : "rotation"
                    }
                }
            ],
            "name" : "RimTyreAction",
            "samplers" : [
                {
                    "input" : 10,
                    "interpolation" : "LINEAR",
                    "output" : 11
                }
            ]
        }
    ],
    "materials" : [
        {
            "doubleSided" : true,
            "name" : "Material.001",
            "pbrMetallicRoughness" : {
                "baseColorFactor" : [
                    0,
                    0,
                    0,
                    1
                ],
                "metallicFactor" : 0,
                "roughnessFactor" : 0.5
            }
        },
        {
            "doubleSided" : true,
            "name" : "Material.002",
            "pbrMetallicRoughness" : {
                "roughnessFactor" : 0.5
            }
        }
    ],
    "meshes" : [
        {
            "name" : "\u041c\u0435\u0448",
            "primitives" : [
                {
                    "attributes" : {
                        "POSITION" : 0,
                        "NORMAL" : 1,
                        "TEXCOORD_0" : 2,
                        "COLOR_0" : 3
                    },
                    "indices" : 4,
                    "material" : 0
                },
                {
                    "attributes" : {
                        "POSITION" : 5,
                        "NORMAL" : 6,
                        "TEXCOORD_0" : 7,
                        "COLOR_0" : 8
                    },
                    "indices" : 9,
                    "material" : 1
                }
            ]
        }
    ],
    "accessors" : [
        {
            "bufferView" : 0,
            "componentType" : 5126,
            "count" : 1400,
            "max" : [
                0.13750702142715454,
                0.3034065067768097,
                0.3034045100212097
            ],
            "min" : [
                -0.10708697885274887,
                -0.3034065067768097,
                -0.3034045100212097
            ],
            "type" : "VEC3"
        },
        {
            "bufferView" : 1,
            "componentType" : 5126,
            "count" : 1400,
            "type" : "VEC3"
        },
        {
            "bufferView" : 2,
            "componentType" : 5126,
            "count" : 1400,
            "type" : "VEC2"
        },
        {
            "bufferView" : 3,
            "componentType" : 5123,
            "count" : 1400,
            "normalized" : true,
            "type" : "VEC4"
        },
        {
            "bufferView" : 4,
            "componentType" : 5123,
            "count" : 6720,
            "type" : "SCALAR"
        },
        {
            "bufferView" : 5,
            "componentType" : 5126,
            "count" : 9816,
            "max" : [
                0.13757485151290894,
                0.2423086166381836,
                0.24302487075328827
            ],
            "min" : [
                -0.11073160916566849,
                -0.2423086166381836,
                -0.24302484095096588
            ],
            "type" : "VEC3"
        },
        {
            "bufferView" : 6,
            "componentType" : 5126,
            "count" : 9816,
            "type" : "VEC3"
        },
        {
            "bufferView" : 7,
            "componentType" : 5126,
            "count" : 9816,
            "type" : "VEC2"
        },
        {
            "bufferView" : 8,
            "componentType" : 5123,
            "count" : 9816,
            "normalized" : true,
            "type" : "VEC4"
        },
        {
            "bufferView" : 9,
            "componentType" : 5123,
            "count" : 46125,
            "type" : "SCALAR"
        },
        {
            "bufferView" : 10,
            "componentType" : 5126,
            "count" : 97,
            "max" : [
                3.2
            ],
            "min" : [
                0
            ],
            "type" : "SCALAR"
        },
        {
            "bufferView" : 11,
            "componentType" : 5126,
            "count" : 97,
            "type" : "VEC4"
        }
    ],
    "bufferViews" : [
        {
            "buffer" : 0,
            "byteLength" : 16800,
            "byteOffset" : 0
        },
        {
            "buffer" : 0,
            "byteLength" : 16800,
            "byteOffset" : 16800
        },
        {
            "buffer" : 0,
            "byteLength" : 11200,
            "byteOffset" : 33600
        },
        {
            "buffer" : 0,
            "byteLength" : 11200,
            "byteOffset" : 44800
        },
        {
            "buffer" : 0,
            "byteLength" : 13440,
            "byteOffset" : 56000
        },
        {
            "buffer" : 0,
            "byteLength" : 117792,
            "byteOffset" : 69440
        },
        {
            "buffer" : 0,
            "byteLength" : 117792,
            "byteOffset" : 187232
        },
        {
            "buffer" : 0,
            "byteLength" : 78528,
            "byteOffset" : 305024
        },
        {
            "buffer" : 0,
            "byteLength" : 78528,
            "byteOffset" : 383552
        },
        {
            "buffer" : 0,
            "byteLength" : 92250,
            "byteOffset" : 462080
        },
        {
            "buffer" : 0,
            "byteLength" : 388,
            "byteOffset" : 554332
        },
        {
            "buffer" : 0,
            "byteLength" : 1552,
            "byteOffset" : 554720
        }
    ],
    "buffers" : [
        {
            "byteLength" : 556272,
            "uri" : "data:application/octet-stream;base64,"
        }
    ]
}
